<mxfile host="app.diagrams.net" modified="2024-03-21T17:53:23.160Z" agent="Mozilla/5.0 (Windows NT 10.0; Win64; x64) AppleWebKit/537.36 (KHTML, like Gecko) Chrome/122.0.0.0 Safari/537.36 Edg/122.0.0.0" etag="jBQfJgS3Xf_yTR8upFOw" version="24.0.7" type="device">
  <diagram name="Pagina-1" id="tHu5KmgdZ8M9CxIbAbxw">
    <mxGraphModel dx="1109" dy="634" grid="1" gridSize="10" guides="1" tooltips="1" connect="1" arrows="1" fold="1" page="1" pageScale="1" pageWidth="827" pageHeight="1169" math="0" shadow="0">
      <root>
        <mxCell id="0" />
        <mxCell id="1" parent="0" />
        <mxCell id="xV7-4UzJK3iDp9NhzU9v-4" value="" style="edgeStyle=orthogonalEdgeStyle;rounded=0;orthogonalLoop=1;jettySize=auto;html=1;" edge="1" parent="1" source="xV7-4UzJK3iDp9NhzU9v-1" target="xV7-4UzJK3iDp9NhzU9v-2">
          <mxGeometry relative="1" as="geometry" />
        </mxCell>
        <mxCell id="xV7-4UzJK3iDp9NhzU9v-1" value="INIZIO" style="ellipse;whiteSpace=wrap;html=1;" vertex="1" parent="1">
          <mxGeometry x="240" y="10" width="120" height="80" as="geometry" />
        </mxCell>
        <mxCell id="xV7-4UzJK3iDp9NhzU9v-7" value="SI" style="edgeStyle=orthogonalEdgeStyle;rounded=0;orthogonalLoop=1;jettySize=auto;html=1;" edge="1" parent="1" source="xV7-4UzJK3iDp9NhzU9v-2" target="xV7-4UzJK3iDp9NhzU9v-5">
          <mxGeometry relative="1" as="geometry" />
        </mxCell>
        <mxCell id="xV7-4UzJK3iDp9NhzU9v-10" value="NO" style="edgeStyle=orthogonalEdgeStyle;rounded=0;orthogonalLoop=1;jettySize=auto;html=1;" edge="1" parent="1" source="xV7-4UzJK3iDp9NhzU9v-2" target="xV7-4UzJK3iDp9NhzU9v-9">
          <mxGeometry relative="1" as="geometry" />
        </mxCell>
        <mxCell id="xV7-4UzJK3iDp9NhzU9v-2" value="HO TUTTI GLI INGREDIENTI" style="rhombus;whiteSpace=wrap;html=1;" vertex="1" parent="1">
          <mxGeometry x="225" y="120" width="150" height="80" as="geometry" />
        </mxCell>
        <mxCell id="xV7-4UzJK3iDp9NhzU9v-16" value="" style="edgeStyle=orthogonalEdgeStyle;rounded=0;orthogonalLoop=1;jettySize=auto;html=1;" edge="1" parent="1" source="xV7-4UzJK3iDp9NhzU9v-5" target="xV7-4UzJK3iDp9NhzU9v-15">
          <mxGeometry relative="1" as="geometry" />
        </mxCell>
        <mxCell id="xV7-4UzJK3iDp9NhzU9v-5" value="ACCENDO IL FORNELLO" style="rounded=0;whiteSpace=wrap;html=1;" vertex="1" parent="1">
          <mxGeometry x="240" y="240" width="120" height="60" as="geometry" />
        </mxCell>
        <mxCell id="xV7-4UzJK3iDp9NhzU9v-12" value="" style="edgeStyle=orthogonalEdgeStyle;rounded=0;orthogonalLoop=1;jettySize=auto;html=1;" edge="1" parent="1" source="xV7-4UzJK3iDp9NhzU9v-9" target="xV7-4UzJK3iDp9NhzU9v-11">
          <mxGeometry relative="1" as="geometry" />
        </mxCell>
        <mxCell id="xV7-4UzJK3iDp9NhzU9v-9" value="VADO AL SUPERMERCATO" style="whiteSpace=wrap;html=1;" vertex="1" parent="1">
          <mxGeometry x="10" y="130" width="120" height="60" as="geometry" />
        </mxCell>
        <mxCell id="xV7-4UzJK3iDp9NhzU9v-13" value="" style="edgeStyle=orthogonalEdgeStyle;rounded=0;orthogonalLoop=1;jettySize=auto;html=1;entryX=0.187;entryY=0.7;entryDx=0;entryDy=0;entryPerimeter=0;exitX=0.5;exitY=1;exitDx=0;exitDy=0;" edge="1" parent="1" source="xV7-4UzJK3iDp9NhzU9v-11" target="xV7-4UzJK3iDp9NhzU9v-2">
          <mxGeometry relative="1" as="geometry">
            <Array as="points">
              <mxPoint x="70" y="230" />
              <mxPoint x="240" y="230" />
              <mxPoint x="240" y="176" />
            </Array>
          </mxGeometry>
        </mxCell>
        <mxCell id="xV7-4UzJK3iDp9NhzU9v-11" value="COMPRO GLI INGREDIENTI" style="whiteSpace=wrap;html=1;" vertex="1" parent="1">
          <mxGeometry x="10" y="210" width="120" height="60" as="geometry" />
        </mxCell>
        <mxCell id="xV7-4UzJK3iDp9NhzU9v-18" value="" style="edgeStyle=orthogonalEdgeStyle;rounded=0;orthogonalLoop=1;jettySize=auto;html=1;" edge="1" parent="1" source="xV7-4UzJK3iDp9NhzU9v-15" target="xV7-4UzJK3iDp9NhzU9v-17">
          <mxGeometry relative="1" as="geometry" />
        </mxCell>
        <mxCell id="xV7-4UzJK3iDp9NhzU9v-15" value="PRENDO LA PENTOLA PER IL RAGU" style="whiteSpace=wrap;html=1;rounded=0;" vertex="1" parent="1">
          <mxGeometry x="240" y="320" width="120" height="60" as="geometry" />
        </mxCell>
        <mxCell id="xV7-4UzJK3iDp9NhzU9v-20" value="" style="edgeStyle=orthogonalEdgeStyle;rounded=0;orthogonalLoop=1;jettySize=auto;html=1;" edge="1" parent="1" source="xV7-4UzJK3iDp9NhzU9v-17" target="xV7-4UzJK3iDp9NhzU9v-19">
          <mxGeometry relative="1" as="geometry" />
        </mxCell>
        <mxCell id="xV7-4UzJK3iDp9NhzU9v-17" value="INSERISCO GLI INGREDIENTI ALL&#39;INTERNO DELLA PENTOLA" style="whiteSpace=wrap;html=1;rounded=0;" vertex="1" parent="1">
          <mxGeometry x="240" y="400" width="120" height="60" as="geometry" />
        </mxCell>
        <mxCell id="xV7-4UzJK3iDp9NhzU9v-22" value="" style="edgeStyle=orthogonalEdgeStyle;rounded=0;orthogonalLoop=1;jettySize=auto;html=1;" edge="1" parent="1" source="xV7-4UzJK3iDp9NhzU9v-19" target="xV7-4UzJK3iDp9NhzU9v-21">
          <mxGeometry relative="1" as="geometry" />
        </mxCell>
        <mxCell id="xV7-4UzJK3iDp9NhzU9v-19" value="METTO LA PENTOLA SUL FUOCO" style="whiteSpace=wrap;html=1;rounded=0;" vertex="1" parent="1">
          <mxGeometry x="240" y="480" width="120" height="60" as="geometry" />
        </mxCell>
        <mxCell id="xV7-4UzJK3iDp9NhzU9v-25" value="" style="edgeStyle=orthogonalEdgeStyle;rounded=0;orthogonalLoop=1;jettySize=auto;html=1;" edge="1" parent="1" source="xV7-4UzJK3iDp9NhzU9v-21" target="xV7-4UzJK3iDp9NhzU9v-24">
          <mxGeometry relative="1" as="geometry" />
        </mxCell>
        <mxCell id="xV7-4UzJK3iDp9NhzU9v-21" value="CUOCIO IL RAGU" style="whiteSpace=wrap;html=1;rounded=0;" vertex="1" parent="1">
          <mxGeometry x="240" y="560" width="120" height="60" as="geometry" />
        </mxCell>
        <mxCell id="xV7-4UzJK3iDp9NhzU9v-29" value="NO" style="edgeStyle=orthogonalEdgeStyle;rounded=0;orthogonalLoop=1;jettySize=auto;html=1;exitX=0;exitY=0.5;exitDx=0;exitDy=0;entryX=0;entryY=0.5;entryDx=0;entryDy=0;" edge="1" parent="1" source="xV7-4UzJK3iDp9NhzU9v-24" target="xV7-4UzJK3iDp9NhzU9v-21">
          <mxGeometry relative="1" as="geometry">
            <Array as="points">
              <mxPoint x="180" y="700" />
              <mxPoint x="180" y="590" />
            </Array>
          </mxGeometry>
        </mxCell>
        <mxCell id="xV7-4UzJK3iDp9NhzU9v-31" value="" style="edgeStyle=orthogonalEdgeStyle;rounded=0;orthogonalLoop=1;jettySize=auto;html=1;" edge="1" parent="1" source="xV7-4UzJK3iDp9NhzU9v-24" target="xV7-4UzJK3iDp9NhzU9v-30">
          <mxGeometry relative="1" as="geometry" />
        </mxCell>
        <mxCell id="xV7-4UzJK3iDp9NhzU9v-24" value="IL RAGU E&#39; PRONTO?" style="rhombus;whiteSpace=wrap;html=1;rounded=0;" vertex="1" parent="1">
          <mxGeometry x="260" y="660" width="80" height="80" as="geometry" />
        </mxCell>
        <mxCell id="xV7-4UzJK3iDp9NhzU9v-35" style="edgeStyle=orthogonalEdgeStyle;rounded=0;orthogonalLoop=1;jettySize=auto;html=1;entryX=0.5;entryY=0;entryDx=0;entryDy=0;" edge="1" parent="1" source="xV7-4UzJK3iDp9NhzU9v-30" target="xV7-4UzJK3iDp9NhzU9v-34">
          <mxGeometry relative="1" as="geometry">
            <Array as="points">
              <mxPoint x="390" y="790" />
              <mxPoint x="390" y="200" />
              <mxPoint x="480" y="200" />
            </Array>
          </mxGeometry>
        </mxCell>
        <mxCell id="xV7-4UzJK3iDp9NhzU9v-30" value="SPENGO FORNELLO" style="whiteSpace=wrap;html=1;rounded=0;" vertex="1" parent="1">
          <mxGeometry x="240" y="760" width="120" height="60" as="geometry" />
        </mxCell>
        <mxCell id="xV7-4UzJK3iDp9NhzU9v-38" value="" style="edgeStyle=orthogonalEdgeStyle;rounded=0;orthogonalLoop=1;jettySize=auto;html=1;" edge="1" parent="1" source="xV7-4UzJK3iDp9NhzU9v-34" target="xV7-4UzJK3iDp9NhzU9v-37">
          <mxGeometry relative="1" as="geometry" />
        </mxCell>
        <mxCell id="xV7-4UzJK3iDp9NhzU9v-34" value="ACCENDO FORNELLO" style="rounded=0;whiteSpace=wrap;html=1;" vertex="1" parent="1">
          <mxGeometry x="420" y="240" width="120" height="60" as="geometry" />
        </mxCell>
        <mxCell id="xV7-4UzJK3iDp9NhzU9v-40" value="" style="edgeStyle=orthogonalEdgeStyle;rounded=0;orthogonalLoop=1;jettySize=auto;html=1;" edge="1" parent="1" source="xV7-4UzJK3iDp9NhzU9v-37" target="xV7-4UzJK3iDp9NhzU9v-39">
          <mxGeometry relative="1" as="geometry" />
        </mxCell>
        <mxCell id="xV7-4UzJK3iDp9NhzU9v-37" value="PRENDO LA PENTOLA PER I FOGLI DI LASAGNA" style="whiteSpace=wrap;html=1;rounded=0;" vertex="1" parent="1">
          <mxGeometry x="420" y="320" width="120" height="60" as="geometry" />
        </mxCell>
        <mxCell id="xV7-4UzJK3iDp9NhzU9v-42" value="" style="edgeStyle=orthogonalEdgeStyle;rounded=0;orthogonalLoop=1;jettySize=auto;html=1;" edge="1" parent="1" source="xV7-4UzJK3iDp9NhzU9v-39" target="xV7-4UzJK3iDp9NhzU9v-41">
          <mxGeometry relative="1" as="geometry" />
        </mxCell>
        <mxCell id="xV7-4UzJK3iDp9NhzU9v-39" value="INSERISCO ACQUA E SALE" style="whiteSpace=wrap;html=1;rounded=0;" vertex="1" parent="1">
          <mxGeometry x="420" y="400" width="120" height="60" as="geometry" />
        </mxCell>
        <mxCell id="xV7-4UzJK3iDp9NhzU9v-45" value="" style="edgeStyle=orthogonalEdgeStyle;rounded=0;orthogonalLoop=1;jettySize=auto;html=1;" edge="1" parent="1" source="xV7-4UzJK3iDp9NhzU9v-41" target="xV7-4UzJK3iDp9NhzU9v-43">
          <mxGeometry relative="1" as="geometry" />
        </mxCell>
        <mxCell id="xV7-4UzJK3iDp9NhzU9v-41" value="METTO LA PENTOLA SUL FUOCO" style="whiteSpace=wrap;html=1;rounded=0;" vertex="1" parent="1">
          <mxGeometry x="420" y="480" width="120" height="60" as="geometry" />
        </mxCell>
        <mxCell id="xV7-4UzJK3iDp9NhzU9v-47" value="" style="edgeStyle=orthogonalEdgeStyle;rounded=0;orthogonalLoop=1;jettySize=auto;html=1;" edge="1" parent="1" source="xV7-4UzJK3iDp9NhzU9v-43" target="xV7-4UzJK3iDp9NhzU9v-46">
          <mxGeometry relative="1" as="geometry" />
        </mxCell>
        <mxCell id="xV7-4UzJK3iDp9NhzU9v-43" value="FACCIO BOLLIRE L&#39;ACQUA" style="rounded=0;whiteSpace=wrap;html=1;" vertex="1" parent="1">
          <mxGeometry x="420" y="560" width="120" height="60" as="geometry" />
        </mxCell>
        <mxCell id="xV7-4UzJK3iDp9NhzU9v-44" style="edgeStyle=orthogonalEdgeStyle;rounded=0;orthogonalLoop=1;jettySize=auto;html=1;exitX=0.5;exitY=1;exitDx=0;exitDy=0;" edge="1" parent="1" source="xV7-4UzJK3iDp9NhzU9v-41" target="xV7-4UzJK3iDp9NhzU9v-41">
          <mxGeometry relative="1" as="geometry" />
        </mxCell>
        <mxCell id="xV7-4UzJK3iDp9NhzU9v-46" value="L&#39;ACQUA BOLLE?" style="rhombus;whiteSpace=wrap;html=1;rounded=0;" vertex="1" parent="1">
          <mxGeometry x="440" y="660" width="80" height="80" as="geometry" />
        </mxCell>
        <mxCell id="xV7-4UzJK3iDp9NhzU9v-48" value="NO" style="endArrow=classic;html=1;rounded=0;exitX=0;exitY=0.5;exitDx=0;exitDy=0;" edge="1" parent="1" source="xV7-4UzJK3iDp9NhzU9v-46">
          <mxGeometry width="50" height="50" relative="1" as="geometry">
            <mxPoint x="410" y="670" as="sourcePoint" />
            <mxPoint x="460" y="620" as="targetPoint" />
            <Array as="points">
              <mxPoint x="420" y="700" />
              <mxPoint x="420" y="640" />
              <mxPoint x="460" y="640" />
            </Array>
          </mxGeometry>
        </mxCell>
        <mxCell id="xV7-4UzJK3iDp9NhzU9v-52" value="" style="edgeStyle=orthogonalEdgeStyle;rounded=0;orthogonalLoop=1;jettySize=auto;html=1;" edge="1" parent="1" source="xV7-4UzJK3iDp9NhzU9v-49" target="xV7-4UzJK3iDp9NhzU9v-51">
          <mxGeometry relative="1" as="geometry" />
        </mxCell>
        <mxCell id="xV7-4UzJK3iDp9NhzU9v-49" value="METTIAMO UN FOGLIO DI LASAGNA NELLA PENTOLA" style="rounded=0;whiteSpace=wrap;html=1;" vertex="1" parent="1">
          <mxGeometry x="580" y="480" width="120" height="60" as="geometry" />
        </mxCell>
        <mxCell id="xV7-4UzJK3iDp9NhzU9v-50" value="SI" style="endArrow=classic;html=1;rounded=0;exitX=1;exitY=0.5;exitDx=0;exitDy=0;" edge="1" parent="1" source="xV7-4UzJK3iDp9NhzU9v-46">
          <mxGeometry width="50" height="50" relative="1" as="geometry">
            <mxPoint x="580" y="530" as="sourcePoint" />
            <mxPoint x="630" y="480" as="targetPoint" />
            <Array as="points">
              <mxPoint x="550" y="700" />
              <mxPoint x="550" y="580" />
              <mxPoint x="550" y="460" />
              <mxPoint x="630" y="460" />
            </Array>
          </mxGeometry>
        </mxCell>
        <mxCell id="xV7-4UzJK3iDp9NhzU9v-63" value="" style="edgeStyle=orthogonalEdgeStyle;rounded=0;orthogonalLoop=1;jettySize=auto;html=1;" edge="1" parent="1" source="xV7-4UzJK3iDp9NhzU9v-51" target="xV7-4UzJK3iDp9NhzU9v-55">
          <mxGeometry relative="1" as="geometry" />
        </mxCell>
        <mxCell id="xV7-4UzJK3iDp9NhzU9v-51" value="SBOLLENTIAMO" style="whiteSpace=wrap;html=1;rounded=0;" vertex="1" parent="1">
          <mxGeometry x="580" y="560" width="120" height="60" as="geometry" />
        </mxCell>
        <mxCell id="xV7-4UzJK3iDp9NhzU9v-58" value="SI" style="edgeStyle=orthogonalEdgeStyle;rounded=0;orthogonalLoop=1;jettySize=auto;html=1;" edge="1" parent="1" source="xV7-4UzJK3iDp9NhzU9v-55" target="xV7-4UzJK3iDp9NhzU9v-57">
          <mxGeometry relative="1" as="geometry" />
        </mxCell>
        <mxCell id="xV7-4UzJK3iDp9NhzU9v-55" value="TUTTI I FOGLI SONO SBOLLENTATI" style="rhombus;whiteSpace=wrap;html=1;rounded=0;" vertex="1" parent="1">
          <mxGeometry x="570" y="660" width="130" height="100" as="geometry" />
        </mxCell>
        <mxCell id="xV7-4UzJK3iDp9NhzU9v-65" value="" style="edgeStyle=orthogonalEdgeStyle;rounded=0;orthogonalLoop=1;jettySize=auto;html=1;" edge="1" parent="1" source="xV7-4UzJK3iDp9NhzU9v-57" target="xV7-4UzJK3iDp9NhzU9v-64">
          <mxGeometry relative="1" as="geometry" />
        </mxCell>
        <mxCell id="xV7-4UzJK3iDp9NhzU9v-57" value="SPENGO FORNELLO" style="whiteSpace=wrap;html=1;rounded=0;" vertex="1" parent="1">
          <mxGeometry x="410" y="760" width="120" height="60" as="geometry" />
        </mxCell>
        <mxCell id="xV7-4UzJK3iDp9NhzU9v-60" value="NO" style="endArrow=classic;html=1;rounded=0;entryX=0.65;entryY=-0.017;entryDx=0;entryDy=0;entryPerimeter=0;" edge="1" parent="1" target="xV7-4UzJK3iDp9NhzU9v-49">
          <mxGeometry width="50" height="50" relative="1" as="geometry">
            <mxPoint x="700" y="710" as="sourcePoint" />
            <mxPoint x="750" y="660" as="targetPoint" />
            <Array as="points">
              <mxPoint x="720" y="710" />
              <mxPoint x="720" y="460" />
              <mxPoint x="660" y="460" />
            </Array>
          </mxGeometry>
        </mxCell>
        <mxCell id="xV7-4UzJK3iDp9NhzU9v-67" value="" style="edgeStyle=orthogonalEdgeStyle;rounded=0;orthogonalLoop=1;jettySize=auto;html=1;" edge="1" parent="1" source="xV7-4UzJK3iDp9NhzU9v-64" target="xV7-4UzJK3iDp9NhzU9v-66">
          <mxGeometry relative="1" as="geometry" />
        </mxCell>
        <mxCell id="xV7-4UzJK3iDp9NhzU9v-64" value="ALTERNIAMO STRATI DI FOGLI DI LASAGNA A RAGU FINO ALL&#39;ESAURIMENTO" style="whiteSpace=wrap;html=1;rounded=0;" vertex="1" parent="1">
          <mxGeometry x="410" y="850" width="120" height="90" as="geometry" />
        </mxCell>
        <mxCell id="xV7-4UzJK3iDp9NhzU9v-69" value="" style="edgeStyle=orthogonalEdgeStyle;rounded=0;orthogonalLoop=1;jettySize=auto;html=1;" edge="1" parent="1" source="xV7-4UzJK3iDp9NhzU9v-66" target="xV7-4UzJK3iDp9NhzU9v-68">
          <mxGeometry relative="1" as="geometry" />
        </mxCell>
        <mxCell id="xV7-4UzJK3iDp9NhzU9v-66" value="ACCENDIAMO IL FORNO" style="whiteSpace=wrap;html=1;rounded=0;" vertex="1" parent="1">
          <mxGeometry x="410" y="960" width="120" height="60" as="geometry" />
        </mxCell>
        <mxCell id="xV7-4UzJK3iDp9NhzU9v-71" value="" style="edgeStyle=orthogonalEdgeStyle;rounded=0;orthogonalLoop=1;jettySize=auto;html=1;" edge="1" parent="1" source="xV7-4UzJK3iDp9NhzU9v-68" target="xV7-4UzJK3iDp9NhzU9v-70">
          <mxGeometry relative="1" as="geometry" />
        </mxCell>
        <mxCell id="xV7-4UzJK3iDp9NhzU9v-68" value="SCALDARE IL FORNO A 180 GRADI" style="whiteSpace=wrap;html=1;rounded=0;" vertex="1" parent="1">
          <mxGeometry x="410" y="1050" width="120" height="60" as="geometry" />
        </mxCell>
        <mxCell id="xV7-4UzJK3iDp9NhzU9v-73" value="SI" style="edgeStyle=orthogonalEdgeStyle;rounded=0;orthogonalLoop=1;jettySize=auto;html=1;" edge="1" parent="1" source="xV7-4UzJK3iDp9NhzU9v-70" target="xV7-4UzJK3iDp9NhzU9v-72">
          <mxGeometry relative="1" as="geometry" />
        </mxCell>
        <mxCell id="xV7-4UzJK3iDp9NhzU9v-70" value="IL FORNO è A 180GRADI?" style="rhombus;whiteSpace=wrap;html=1;rounded=0;" vertex="1" parent="1">
          <mxGeometry x="420" y="1140" width="110" height="80" as="geometry" />
        </mxCell>
        <mxCell id="xV7-4UzJK3iDp9NhzU9v-76" value="" style="edgeStyle=orthogonalEdgeStyle;rounded=0;orthogonalLoop=1;jettySize=auto;html=1;" edge="1" parent="1" source="xV7-4UzJK3iDp9NhzU9v-72" target="xV7-4UzJK3iDp9NhzU9v-75">
          <mxGeometry relative="1" as="geometry" />
        </mxCell>
        <mxCell id="xV7-4UzJK3iDp9NhzU9v-72" value="INSERIAMO LA TELIA NEL FORNO" style="whiteSpace=wrap;html=1;rounded=0;" vertex="1" parent="1">
          <mxGeometry x="414" y="1250" width="120" height="60" as="geometry" />
        </mxCell>
        <mxCell id="xV7-4UzJK3iDp9NhzU9v-74" value="NO" style="endArrow=classic;html=1;rounded=0;entryX=1;entryY=0.5;entryDx=0;entryDy=0;" edge="1" parent="1" target="xV7-4UzJK3iDp9NhzU9v-68">
          <mxGeometry width="50" height="50" relative="1" as="geometry">
            <mxPoint x="530" y="1180" as="sourcePoint" />
            <mxPoint x="580" y="1130" as="targetPoint" />
            <Array as="points">
              <mxPoint x="580" y="1180" />
              <mxPoint x="580" y="1080" />
            </Array>
          </mxGeometry>
        </mxCell>
        <mxCell id="xV7-4UzJK3iDp9NhzU9v-79" value="" style="edgeStyle=orthogonalEdgeStyle;rounded=0;orthogonalLoop=1;jettySize=auto;html=1;" edge="1" parent="1" source="xV7-4UzJK3iDp9NhzU9v-75" target="xV7-4UzJK3iDp9NhzU9v-78">
          <mxGeometry relative="1" as="geometry" />
        </mxCell>
        <mxCell id="xV7-4UzJK3iDp9NhzU9v-75" value="CUOCERE LA LASAGNA" style="whiteSpace=wrap;html=1;rounded=0;" vertex="1" parent="1">
          <mxGeometry x="414" y="1340" width="120" height="60" as="geometry" />
        </mxCell>
        <mxCell id="xV7-4UzJK3iDp9NhzU9v-81" value="SI" style="edgeStyle=orthogonalEdgeStyle;rounded=0;orthogonalLoop=1;jettySize=auto;html=1;exitX=0;exitY=0.5;exitDx=0;exitDy=0;" edge="1" parent="1" source="xV7-4UzJK3iDp9NhzU9v-78" target="xV7-4UzJK3iDp9NhzU9v-80">
          <mxGeometry relative="1" as="geometry">
            <mxPoint x="350" y="880" as="sourcePoint" />
            <Array as="points">
              <mxPoint x="360" y="1470" />
              <mxPoint x="360" y="960" />
            </Array>
          </mxGeometry>
        </mxCell>
        <mxCell id="xV7-4UzJK3iDp9NhzU9v-78" value="E&#39; PRONTA?" style="rhombus;whiteSpace=wrap;html=1;rounded=0;" vertex="1" parent="1">
          <mxGeometry x="435" y="1430" width="75" height="80" as="geometry" />
        </mxCell>
        <mxCell id="xV7-4UzJK3iDp9NhzU9v-84" value="" style="edgeStyle=orthogonalEdgeStyle;rounded=0;orthogonalLoop=1;jettySize=auto;html=1;" edge="1" parent="1" source="xV7-4UzJK3iDp9NhzU9v-80" target="xV7-4UzJK3iDp9NhzU9v-83">
          <mxGeometry relative="1" as="geometry" />
        </mxCell>
        <mxCell id="xV7-4UzJK3iDp9NhzU9v-80" value="SPEGNERE IL FORNO" style="whiteSpace=wrap;html=1;rounded=0;" vertex="1" parent="1">
          <mxGeometry x="181.5" y="930.11" width="120" height="60" as="geometry" />
        </mxCell>
        <mxCell id="xV7-4UzJK3iDp9NhzU9v-82" value="NO" style="endArrow=classic;html=1;rounded=0;entryX=1;entryY=0.5;entryDx=0;entryDy=0;" edge="1" parent="1" target="xV7-4UzJK3iDp9NhzU9v-75">
          <mxGeometry width="50" height="50" relative="1" as="geometry">
            <mxPoint x="510" y="1470" as="sourcePoint" />
            <mxPoint x="560" y="1420" as="targetPoint" />
            <Array as="points">
              <mxPoint x="580" y="1470" />
              <mxPoint x="580" y="1370" />
            </Array>
          </mxGeometry>
        </mxCell>
        <mxCell id="xV7-4UzJK3iDp9NhzU9v-86" value="" style="edgeStyle=orthogonalEdgeStyle;rounded=0;orthogonalLoop=1;jettySize=auto;html=1;" edge="1" parent="1" source="xV7-4UzJK3iDp9NhzU9v-83" target="xV7-4UzJK3iDp9NhzU9v-85">
          <mxGeometry relative="1" as="geometry" />
        </mxCell>
        <mxCell id="xV7-4UzJK3iDp9NhzU9v-83" value="TIRSRE FUORI LA LASAGNA" style="whiteSpace=wrap;html=1;rounded=0;" vertex="1" parent="1">
          <mxGeometry x="181.5" y="1020.11" width="120" height="60" as="geometry" />
        </mxCell>
        <mxCell id="xV7-4UzJK3iDp9NhzU9v-88" value="" style="edgeStyle=orthogonalEdgeStyle;rounded=0;orthogonalLoop=1;jettySize=auto;html=1;" edge="1" parent="1" source="xV7-4UzJK3iDp9NhzU9v-85" target="xV7-4UzJK3iDp9NhzU9v-87">
          <mxGeometry relative="1" as="geometry" />
        </mxCell>
        <mxCell id="xV7-4UzJK3iDp9NhzU9v-85" value="IMPIATTA LA LASAGNA" style="whiteSpace=wrap;html=1;rounded=0;" vertex="1" parent="1">
          <mxGeometry x="180" y="1110.1100000000001" width="120" height="60" as="geometry" />
        </mxCell>
        <mxCell id="xV7-4UzJK3iDp9NhzU9v-90" value="" style="edgeStyle=orthogonalEdgeStyle;rounded=0;orthogonalLoop=1;jettySize=auto;html=1;" edge="1" parent="1" source="xV7-4UzJK3iDp9NhzU9v-87" target="xV7-4UzJK3iDp9NhzU9v-89">
          <mxGeometry relative="1" as="geometry" />
        </mxCell>
        <mxCell id="xV7-4UzJK3iDp9NhzU9v-87" value="ASSAGGIA LA LASAGNA" style="whiteSpace=wrap;html=1;rounded=0;" vertex="1" parent="1">
          <mxGeometry x="180" y="1210.1100000000001" width="120" height="60" as="geometry" />
        </mxCell>
        <mxCell id="xV7-4UzJK3iDp9NhzU9v-92" value="SI" style="edgeStyle=orthogonalEdgeStyle;rounded=0;orthogonalLoop=1;jettySize=auto;html=1;" edge="1" parent="1" source="xV7-4UzJK3iDp9NhzU9v-89">
          <mxGeometry relative="1" as="geometry">
            <mxPoint x="240" y="1460.1100000000001" as="targetPoint" />
          </mxGeometry>
        </mxCell>
        <mxCell id="xV7-4UzJK3iDp9NhzU9v-89" value="E&#39; BUONA?" style="rhombus;whiteSpace=wrap;html=1;rounded=0;" vertex="1" parent="1">
          <mxGeometry x="200" y="1340.1100000000001" width="80" height="80" as="geometry" />
        </mxCell>
        <mxCell id="xV7-4UzJK3iDp9NhzU9v-94" value="" style="edgeStyle=orthogonalEdgeStyle;rounded=0;orthogonalLoop=1;jettySize=auto;html=1;" edge="1" parent="1" source="xV7-4UzJK3iDp9NhzU9v-91" target="xV7-4UzJK3iDp9NhzU9v-93">
          <mxGeometry relative="1" as="geometry" />
        </mxCell>
        <mxCell id="xV7-4UzJK3iDp9NhzU9v-91" value="MANGIA LA LASAGNA" style="whiteSpace=wrap;html=1;rounded=0;" vertex="1" parent="1">
          <mxGeometry x="181.5" y="1460" width="120" height="60" as="geometry" />
        </mxCell>
        <mxCell id="xV7-4UzJK3iDp9NhzU9v-96" value="" style="edgeStyle=orthogonalEdgeStyle;rounded=0;orthogonalLoop=1;jettySize=auto;html=1;" edge="1" parent="1" source="xV7-4UzJK3iDp9NhzU9v-93" target="xV7-4UzJK3iDp9NhzU9v-95">
          <mxGeometry relative="1" as="geometry" />
        </mxCell>
        <mxCell id="xV7-4UzJK3iDp9NhzU9v-93" value="PULISCI TUTTO" style="whiteSpace=wrap;html=1;rounded=0;" vertex="1" parent="1">
          <mxGeometry x="181.5" y="1550" width="120" height="60" as="geometry" />
        </mxCell>
        <mxCell id="xV7-4UzJK3iDp9NhzU9v-98" value="" style="edgeStyle=orthogonalEdgeStyle;rounded=0;orthogonalLoop=1;jettySize=auto;html=1;" edge="1" parent="1" source="xV7-4UzJK3iDp9NhzU9v-95" target="xV7-4UzJK3iDp9NhzU9v-97">
          <mxGeometry relative="1" as="geometry" />
        </mxCell>
        <mxCell id="xV7-4UzJK3iDp9NhzU9v-95" value="RIMETTI A POSTO" style="whiteSpace=wrap;html=1;rounded=0;" vertex="1" parent="1">
          <mxGeometry x="181.5" y="1640" width="120" height="60" as="geometry" />
        </mxCell>
        <mxCell id="xV7-4UzJK3iDp9NhzU9v-97" value="FINE" style="ellipse;whiteSpace=wrap;html=1;rounded=0;" vertex="1" parent="1">
          <mxGeometry x="201.5" y="1770" width="80" height="80" as="geometry" />
        </mxCell>
        <mxCell id="xV7-4UzJK3iDp9NhzU9v-99" value="" style="endArrow=classic;html=1;rounded=0;entryX=0;entryY=0.5;entryDx=0;entryDy=0;" edge="1" parent="1" target="xV7-4UzJK3iDp9NhzU9v-100">
          <mxGeometry width="50" height="50" relative="1" as="geometry">
            <mxPoint x="281.5" y="1380" as="sourcePoint" />
            <mxPoint x="390" y="1600" as="targetPoint" />
            <Array as="points">
              <mxPoint x="330" y="1380" />
              <mxPoint x="330" y="1580" />
            </Array>
          </mxGeometry>
        </mxCell>
        <mxCell id="xV7-4UzJK3iDp9NhzU9v-102" value="" style="edgeStyle=orthogonalEdgeStyle;rounded=0;orthogonalLoop=1;jettySize=auto;html=1;" edge="1" parent="1" source="xV7-4UzJK3iDp9NhzU9v-100" target="xV7-4UzJK3iDp9NhzU9v-101">
          <mxGeometry relative="1" as="geometry" />
        </mxCell>
        <mxCell id="xV7-4UzJK3iDp9NhzU9v-100" value="BUTTA LA LASAGNA" style="rounded=0;whiteSpace=wrap;html=1;" vertex="1" parent="1">
          <mxGeometry x="400" y="1550" width="120" height="60" as="geometry" />
        </mxCell>
        <mxCell id="xV7-4UzJK3iDp9NhzU9v-101" value="CI VUOI RIPROVARE?" style="rhombus;whiteSpace=wrap;html=1;rounded=0;" vertex="1" parent="1">
          <mxGeometry x="410" y="1640" width="110" height="80" as="geometry" />
        </mxCell>
        <mxCell id="xV7-4UzJK3iDp9NhzU9v-103" value="NO" style="endArrow=classic;html=1;rounded=0;entryX=1;entryY=0.5;entryDx=0;entryDy=0;exitX=0.5;exitY=1;exitDx=0;exitDy=0;" edge="1" parent="1" source="xV7-4UzJK3iDp9NhzU9v-101" target="xV7-4UzJK3iDp9NhzU9v-93">
          <mxGeometry width="50" height="50" relative="1" as="geometry">
            <mxPoint x="460" y="1720" as="sourcePoint" />
            <mxPoint x="643.5" y="1620" as="targetPoint" />
            <Array as="points">
              <mxPoint x="465" y="1810" />
              <mxPoint x="320" y="1800" />
              <mxPoint x="320" y="1580" />
            </Array>
          </mxGeometry>
        </mxCell>
        <mxCell id="xV7-4UzJK3iDp9NhzU9v-104" value="SI" style="endArrow=classic;html=1;rounded=0;entryX=1;entryY=0.5;entryDx=0;entryDy=0;" edge="1" parent="1" target="xV7-4UzJK3iDp9NhzU9v-2">
          <mxGeometry width="50" height="50" relative="1" as="geometry">
            <mxPoint x="520" y="1680" as="sourcePoint" />
            <mxPoint x="570" y="1630" as="targetPoint" />
            <Array as="points">
              <mxPoint x="800" y="1680" />
              <mxPoint x="800" y="160" />
            </Array>
          </mxGeometry>
        </mxCell>
        <mxCell id="xV7-4UzJK3iDp9NhzU9v-105" value="SI" style="text;html=1;align=center;verticalAlign=middle;resizable=0;points=[];autosize=1;strokeColor=none;fillColor=none;" vertex="1" parent="1">
          <mxGeometry x="620" y="1655" width="30" height="30" as="geometry" />
        </mxCell>
        <mxCell id="xV7-4UzJK3iDp9NhzU9v-106" value="LISTA INGREDIENTI&lt;div&gt;FOGLI DI LASAGNA,RAGU,VINO...&lt;/div&gt;" style="shape=document;whiteSpace=wrap;html=1;boundedLbl=1;" vertex="1" parent="1">
          <mxGeometry x="650" y="20" width="155" height="80" as="geometry" />
        </mxCell>
      </root>
    </mxGraphModel>
  </diagram>
</mxfile>
